<?xml version="1.0" encoding="UTF-8"?>
<svg  xmlns="http://www.w3.org/2000/svg" width="128.104" height="25" id="gauzy-logo" class="gauzy-top-logo" version="1.1" xmlns:xlink="http://www.w3.org/1999/xlink" viewBox="0 0 617.93 129.43">
  <!-- Generator: Adobe Illustrator 29.3.0, SVG Export Plug-In . SVG Version: 2.1.0 Build 146)  -->
  <defs>
    <style>
      .st0 {
        fill: url(#linear-gradient2);
      }

      .st1 {
        fill: url(#linear-gradient10);
      }

      .st2 {
        fill: url(#linear-gradient21);
      }

      .st3 {
        fill: #fff;
      }

      .st4 {
        fill: url(#linear-gradient1);
      }

      .st5 {
        fill: url(#linear-gradient9);
      }

      .st6 {
        fill: url(#linear-gradient18);
      }

      .st7 {
        fill: url(#linear-gradient23);
      }

      .st8 {
        fill: url(#linear-gradient8);
      }

      .st9 {
        fill: url(#linear-gradient11);
      }

      .st10 {
        fill: url(#linear-gradient16);
      }

      .st11 {
        fill: url(#linear-gradient22);
      }

      .st12 {
        fill: url(#linear-gradient19);
      }

      .st13 {
        fill: url(#linear-gradient12);
      }

      .st14 {
        fill: url(#linear-gradient7);
      }

      .st15 {
        fill: url(#linear-gradient20);
      }

      .st16 {
        fill: url(#linear-gradient4);
      }

      .st17 {
        fill: url(#linear-gradient14);
      }

      .st18 {
        fill: url(#linear-gradient5);
      }

      .st19 {
        fill: url(#linear-gradient3);
      }

      .st20 {
        fill: url(#linear-gradient15);
      }

      .st21 {
        fill: url(#linear-gradient17);
      }

      .st22 {
        fill: url(#linear-gradient6);
      }

      .st23 {
        fill: url(#linear-gradient13);
      }

      .st24 {
        fill: url(#linear-gradient);
      }
    </style>
    <linearGradient id="linear-gradient" x1="1509.24" y1="508.15" x2="1509.24" y2="410.19" gradientUnits="userSpaceOnUse">
      <stop offset="0" stop-color="#a855f7"/>
      <stop offset="1" stop-color="#60a5fa"/>
    </linearGradient>
    <linearGradient id="linear-gradient1" x1="1421.01" y1="508.15" x2="1421.01" y2="410.19" xlink:href="#linear-gradient"/>
    <linearGradient id="linear-gradient2" x1="1324.58" y1="450.82" x2="1324.58" y2="396.54" xlink:href="#linear-gradient"/>
    <linearGradient id="linear-gradient3" x1="1324.58" y1="507.78" x2="1324.58" y2="384.69" xlink:href="#linear-gradient"/>
    <linearGradient id="linear-gradient4" x1="1244.78" y1="508.15" x2="1244.78" y2="410.19" xlink:href="#linear-gradient"/>
    <linearGradient id="linear-gradient5" x1="1240.93" y1="508.15" x2="1240.93" y2="410.19" xlink:href="#linear-gradient"/>
    <linearGradient id="linear-gradient6" x1="1067.04" y1="507.67" x2="1067.04" y2="365.86" xlink:href="#linear-gradient"/>
    <linearGradient id="linear-gradient7" x1="1111" y1="508.15" x2="1111" y2="410.19" xlink:href="#linear-gradient"/>
    <linearGradient id="linear-gradient8" x1="1013.08" y1="450.82" x2="1013.08" y2="396.54" xlink:href="#linear-gradient"/>
    <linearGradient id="linear-gradient9" x1="1013.08" y1="507.78" x2="1013.08" y2="384.69" xlink:href="#linear-gradient"/>
    <linearGradient id="linear-gradient10" x1="1601.99" y1="508.15" x2="1601.99" y2="410.19" xlink:href="#linear-gradient"/>
    <linearGradient id="linear-gradient11" x1="1509.24" y1="508.15" x2="1509.24" y2="410.19" xlink:href="#linear-gradient"/>
    <linearGradient id="linear-gradient12" x1="468.96" y1="122.69" x2="468.96" y2="33.42" xlink:href="#linear-gradient"/>
    <linearGradient id="linear-gradient13" x1="388.56" y1="122.69" x2="388.56" y2="33.42" xlink:href="#linear-gradient"/>
    <linearGradient id="linear-gradient14" x1="300.69" y1="70.45" x2="300.69" y2="20.98" xlink:href="#linear-gradient"/>
    <linearGradient id="linear-gradient15" x1="300.69" y1="122.36" x2="300.69" y2="10.19" xlink:href="#linear-gradient"/>
    <linearGradient id="linear-gradient16" x1="227.96" y1="122.69" x2="227.96" y2="33.42" xlink:href="#linear-gradient"/>
    <linearGradient id="linear-gradient17" x1="224.45" y1="122.69" x2="224.45" y2="33.42" xlink:href="#linear-gradient"/>
    <linearGradient id="linear-gradient18" x1="65.99" y1="122.25" x2="65.99" y2="-6.98" xlink:href="#linear-gradient"/>
    <linearGradient id="linear-gradient19" x1="106.05" y1="122.69" x2="106.05" y2="33.42" xlink:href="#linear-gradient"/>
    <linearGradient id="linear-gradient20" x1="16.82" y1="70.45" x2="16.82" y2="20.98" xlink:href="#linear-gradient"/>
    <linearGradient id="linear-gradient21" x1="16.82" y1="122.36" x2="16.82" y2="10.19" xlink:href="#linear-gradient"/>
    <linearGradient id="linear-gradient22" x1="553.48" y1="122.69" x2="553.48" y2="33.42" xlink:href="#linear-gradient"/>
    <linearGradient id="linear-gradient23" x1="468.96" y1="121.44" x2="468.96" y2="33.33" xlink:href="#linear-gradient"/>
  </defs>
  <rect x="793.67" y="262.71" width="1080" height="384"/>
  <rect class="st3" x="793.67" y="646.7" width="1080" height="384"/>
  <g>
    <path class="st24" d="M1515.9,431.61c1.75,0,3.21.61,4.38,1.84,1.17,1.23,1.75,2.72,1.75,4.47v65.52c0,1.64-.58,3.07-1.75,4.29s-2.63,1.84-4.38,1.84h-13.32c-1.64,0-3.07-.61-4.29-1.84-1.23-1.23-1.84-2.66-1.84-4.29v-65.52c0-1.75.61-3.24,1.84-4.47,1.23-1.23,2.66-1.84,4.29-1.84h13.32Z"/>
    <path class="st4" d="M1448.8,459.29l26.46,40.47c1.28,2.1,1.34,4.2.18,6.31-.47.93-1.2,1.69-2.19,2.28-.99.58-2.01.88-3.07.88h-15.94c-1.05,0-2.04-.26-2.98-.79-.93-.53-1.64-1.2-2.1-2.01l-26.63-42.22h-31.19v38.89c0,1.64-.61,3.07-1.84,4.29s-2.66,1.84-4.29,1.84h-13.32c-1.64,0-3.07-.61-4.29-1.84-1.23-1.23-1.84-2.66-1.84-4.29v-57.64c0-1.64.61-3.07,1.84-4.29,1.23-1.23,2.66-1.84,4.29-1.84h53.96c10.28,0,17.11-2.92,20.5-8.76,1.17-1.87,1.75-4.56,1.75-8.06,0-5.49-1.81-9.81-5.43-12.96-3.74-3.39-9.11-5.08-16.12-5.08h-54.66c-1.64,0-3.07-.61-4.29-1.84-1.23-1.23-1.84-2.66-1.84-4.29v-12.61c0-1.64.61-3.07,1.84-4.29,1.23-1.23,2.66-1.84,4.29-1.84h56.24c13.67,0,24.59,3.85,32.76,11.56,8.53,7.71,12.79,18.16,12.79,31.36,0,8.53-1.87,15.8-5.61,21.81-3.74,6.02-9.17,10.6-16.29,13.75l-2.98,1.23Z"/>
    <path class="st0" d="M1331.24,379.58c1.75,0,3.21.61,4.38,1.84,1.17,1.23,1.75,2.66,1.75,4.29v12.41c0,1.75-.58,3.24-1.75,4.47-1.17,1.23-2.63,1.84-4.38,1.84h-13.32c-1.64,0-3.07-.61-4.29-1.84-1.23-1.23-1.84-2.72-1.84-4.47v-12.41c0-1.64.61-3.07,1.84-4.29,1.23-1.23,2.66-1.84,4.29-1.84h13.32Z"/>
    <path class="st19" d="M1331.24,411.61c1.75,0,3.21.61,4.38,1.84,1.17,1.23,1.75,2.72,1.75,4.47v85.52c0,1.64-.58,3.07-1.75,4.29s-2.63,1.84-4.38,1.84h-13.32c-1.64,0-3.07-.61-4.29-1.84-1.23-1.23-1.84-2.66-1.84-4.29v-85.52c0-1.75.61-3.24,1.84-4.47,1.23-1.23,2.66-1.84,4.29-1.84h13.32Z"/>
    <path class="st16" d="M1287.27,379.58c1.64,0,3.07.61,4.29,1.84,1.23,1.23,1.84,2.66,1.84,4.29v12.79c0,1.75-.61,3.24-1.84,4.47s-2.66,1.84-4.29,1.84h-84.97c-1.64,0-3.07-.61-4.29-1.84-1.23-1.23-1.84-2.72-1.84-4.47v-12.79c0-1.64.61-3.07,1.84-4.29s2.66-1.84,4.29-1.84h84.97Z"/>
    <path class="st18" d="M1279.38,431.65c1.75,0,3.24.61,4.47,1.84,1.23,1.23,1.84,2.72,1.84,4.47v12.96c0,1.64-.61,3.07-1.84,4.29-1.23,1.23-2.72,1.84-4.47,1.84h-57.64v46.39c0,1.64-.58,3.07-1.75,4.29s-2.63,1.84-4.38,1.84h-13.32c-1.64,0-3.07-.61-4.29-1.84-1.23-1.23-1.84-2.66-1.84-4.29v-65.48c0-1.75.61-3.24,1.84-4.47,1.23-1.23,2.66-1.84,4.29-1.84h77.09Z"/>
    <path class="st22" d="M1073.7,444.55c1.64,0,3.07.58,4.29,1.75s1.84,2.63,1.84,4.38v52.41c0,1.64-.61,3.07-1.84,4.29s-2.66,1.84-4.29,1.84h-13.32c-1.64,0-3.07-.61-4.29-1.84-1.23-1.23-1.84-2.66-1.84-4.29v-52.41c0-1.75.61-3.21,1.84-4.38,1.23-1.17,2.66-1.75,4.29-1.75h13.32Z"/>
    <path class="st14" d="M1161.65,379.58c1.64,0,3.07.61,4.29,1.84,1.23,1.23,1.84,2.66,1.84,4.29v117.38c0,1.64-.61,3.07-1.84,4.29-1.23,1.23-2.66,1.84-4.29,1.84h-15.42c-2.1,0-3.8-.82-5.08-2.45l-85.67-117.38c-.7-.93-1.11-1.99-1.23-3.15-.12-1.17.09-2.28.61-3.33.53-1.05,1.28-1.87,2.28-2.45.99-.58,2.07-.88,3.24-.88h15.42c.93,0,1.87.2,2.8.61.93.41,1.64,1.02,2.1,1.84l61.5,83.57v-79.89c0-1.64.58-3.07,1.75-4.29,1.17-1.23,2.63-1.84,4.38-1.84h13.32,0Z"/>
    <path class="st8" d="M1019.74,379.58c1.75,0,3.21.61,4.38,1.84,1.17,1.23,1.75,2.66,1.75,4.29v12.41c0,1.75-.58,3.24-1.75,4.47-1.17,1.23-2.63,1.84-4.38,1.84h-13.32c-1.64,0-3.07-.61-4.29-1.84-1.23-1.23-1.84-2.72-1.84-4.47v-12.41c0-1.64.61-3.07,1.84-4.29,1.23-1.23,2.66-1.84,4.29-1.84h13.32Z"/>
    <path class="st5" d="M1019.74,411.61c1.75,0,3.21.61,4.38,1.84,1.17,1.23,1.75,2.72,1.75,4.47v85.52c0,1.64-.58,3.07-1.75,4.29-1.17,1.23-2.63,1.84-4.38,1.84h-13.32c-1.64,0-3.07-.61-4.29-1.84-1.23-1.23-1.84-2.66-1.84-4.29v-85.52c0-1.75.61-3.24,1.84-4.47,1.23-1.23,2.66-1.84,4.29-1.84h13.32Z"/>
    <path class="st1" d="M1666.19,497.93l-57-114c-1.37-2.74-4.13-4.45-7.2-4.45s-5.83,1.71-7.2,4.45l-57,114c-1.26,2.51-1.13,5.44.35,7.83,1.48,2.39,4.04,3.82,6.85,3.82h114c2.81,0,5.37-1.43,6.85-3.82,1.48-2.39,1.61-5.32.35-7.83ZM1617.72,457.23l-12.04-24.08c-1.52-3.04-5.87-3.04-7.39,0l-22.65,45.31c-1.37,2.75.62,5.98,3.69,5.98h61.3c1.56,0,2.99.88,3.69,2.28l1.18,2.35c1.37,2.75-.62,5.98-3.69,5.98h-79.65c-3.07,0-5.07-3.23-3.69-5.98l39.82-79.65c1.52-3.04,5.87-3.04,7.39,0l29.21,58.42c1.37,2.75-.62,5.98-3.69,5.98h-34.69c-3.07,0-5.07-3.23-3.69-5.98l1.18-2.36c.7-1.4,2.13-2.28,3.69-2.28h16.34c3.07,0,5.07-3.23,3.69-5.98Z"/>
    <path class="st9" d="M1510.73,380.52l5.13,13.88c.16.43.5.78.94.94l13.88,5.13c1.38.51,1.38,2.47,0,2.98l-13.88,5.13c-.43.16-.78.5-.94.94l-5.13,13.88c-.51,1.38-2.47,1.38-2.98,0l-5.13-13.88c-.16-.43-.5-.78-.94-.94l-13.88-5.13c-1.38-.51-1.38-2.47,0-2.98l13.88-5.13c.43-.16.78-.5.94-.94l5.13-13.88c.51-1.38,2.47-1.38,2.98,0Z"/>
  </g>
  <g>
    <path class="st13" d="M475.03,52.94c1.6,0,2.93.56,3.99,1.68,1.06,1.12,1.6,2.47,1.6,4.07v59.71c0,1.49-.53,2.79-1.6,3.91s-2.39,1.68-3.99,1.68h-12.13c-1.49,0-2.79-.56-3.91-1.68-1.12-1.12-1.68-2.42-1.68-3.91v-59.71c0-1.6.56-2.95,1.68-4.07,1.12-1.12,2.42-1.68,3.91-1.68h12.13Z"/>
    <path class="st23" d="M413.88,78.17l24.11,36.88c1.17,1.92,1.22,3.83.16,5.75-.43.85-1.09,1.54-2,2.08-.9.53-1.84.8-2.79.8h-14.53c-.96,0-1.86-.24-2.71-.72-.85-.48-1.49-1.09-1.92-1.84l-24.27-38.48h-28.42v35.44c0,1.49-.56,2.79-1.68,3.91s-2.42,1.68-3.91,1.68h-12.13c-1.49,0-2.79-.56-3.91-1.68-1.12-1.12-1.68-2.42-1.68-3.91v-52.53c0-1.49.56-2.79,1.68-3.91,1.12-1.12,2.42-1.68,3.91-1.68h49.17c9.37,0,15.59-2.66,18.68-7.98,1.06-1.7,1.6-4.15,1.6-7.34,0-5-1.65-8.94-4.95-11.81-3.41-3.09-8.3-4.63-14.69-4.63h-49.81c-1.49,0-2.79-.56-3.91-1.68-1.12-1.12-1.68-2.42-1.68-3.91v-11.5c0-1.49.56-2.79,1.68-3.91,1.12-1.12,2.42-1.68,3.91-1.68h51.25c12.45,0,22.4,3.51,29.86,10.54,7.77,7.02,11.65,16.55,11.65,28.58,0,7.77-1.7,14.4-5.11,19.88-3.41,5.48-8.36,9.66-14.85,12.53l-2.71,1.12Z"/>
    <path class="st17" d="M306.75,5.53c1.6,0,2.93.56,3.99,1.68,1.06,1.12,1.6,2.42,1.6,3.91v11.31c0,1.6-.53,2.95-1.6,4.07-1.06,1.12-2.39,1.68-3.99,1.68h-12.13c-1.49,0-2.79-.56-3.91-1.68-1.12-1.12-1.68-2.47-1.68-4.07v-11.31c0-1.49.56-2.79,1.68-3.91,1.12-1.12,2.42-1.68,3.91-1.68h12.13Z"/>
    <path class="st20" d="M306.75,34.72c1.6,0,2.93.56,3.99,1.68,1.06,1.12,1.6,2.47,1.6,4.07v77.94c0,1.49-.53,2.79-1.6,3.91s-2.39,1.68-3.99,1.68h-12.13c-1.49,0-2.79-.56-3.91-1.68-1.12-1.12-1.68-2.42-1.68-3.91V40.47c0-1.6.56-2.95,1.68-4.07,1.12-1.12,2.42-1.68,3.91-1.68h12.13Z"/>
    <path class="st10" d="M266.68,5.53c1.49,0,2.79.56,3.91,1.68,1.12,1.12,1.68,2.42,1.68,3.91v11.65c0,1.6-.56,2.95-1.68,4.07s-2.42,1.68-3.91,1.68h-77.43c-1.49,0-2.79-.56-3.91-1.68-1.12-1.12-1.68-2.47-1.68-4.07v-11.65c0-1.49.56-2.79,1.68-3.91s2.42-1.68,3.91-1.68h77.43Z"/>
    <path class="st21" d="M259.49,52.98c1.6,0,2.95.56,4.07,1.68,1.12,1.12,1.68,2.47,1.68,4.07v11.81c0,1.49-.56,2.79-1.68,3.91-1.12,1.12-2.47,1.68-4.07,1.68h-52.53v42.27c0,1.49-.53,2.79-1.6,3.91s-2.39,1.68-3.99,1.68h-12.13c-1.49,0-2.79-.56-3.91-1.68-1.12-1.12-1.68-2.42-1.68-3.91v-59.67c0-1.6.56-2.95,1.68-4.07,1.12-1.12,2.42-1.68,3.91-1.68h70.25Z"/>
    <path class="st6" d="M72.06,64.73c1.49,0,2.79.53,3.91,1.6s1.68,2.39,1.68,3.99v47.76c0,1.49-.56,2.79-1.68,3.91s-2.42,1.68-3.91,1.68h-12.13c-1.49,0-2.79-.56-3.91-1.68-1.12-1.12-1.68-2.42-1.68-3.91v-47.76c0-1.6.56-2.93,1.68-3.99,1.12-1.06,2.42-1.6,3.91-1.6h12.13Z"/>
    <path class="st12" d="M152.21,5.53c1.49,0,2.79.56,3.91,1.68,1.12,1.12,1.68,2.42,1.68,3.91v106.97c0,1.49-.56,2.79-1.68,3.91-1.12,1.12-2.42,1.68-3.91,1.68h-14.05c-1.92,0-3.46-.75-4.63-2.24L55.46,14.47c-.64-.85-1.01-1.81-1.12-2.87-.11-1.06.08-2.08.56-3.03.48-.96,1.17-1.7,2.08-2.24.9-.53,1.89-.8,2.95-.8h14.05c.85,0,1.7.19,2.55.56.85.37,1.49.93,1.92,1.68l56.04,76.16V11.11c0-1.49.53-2.79,1.6-3.91,1.06-1.12,2.39-1.68,3.99-1.68h12.13,0Z"/>
    <path class="st15" d="M22.89,5.53c1.6,0,2.93.56,3.99,1.68,1.06,1.12,1.6,2.42,1.6,3.91v11.31c0,1.6-.53,2.95-1.6,4.07-1.06,1.12-2.39,1.68-3.99,1.68h-12.13c-1.49,0-2.79-.56-3.91-1.68-1.12-1.12-1.68-2.47-1.68-4.07v-11.31c0-1.49.56-2.79,1.68-3.91,1.12-1.12,2.42-1.68,3.91-1.68h12.13Z"/>
    <path class="st2" d="M22.89,34.72c1.6,0,2.93.56,3.99,1.68,1.06,1.12,1.6,2.47,1.6,4.07v77.94c0,1.49-.53,2.79-1.6,3.91-1.06,1.12-2.39,1.68-3.99,1.68h-12.13c-1.49,0-2.79-.56-3.91-1.68-1.12-1.12-1.68-2.42-1.68-3.91V40.47c0-1.6.56-2.95,1.68-4.07,1.12-1.12,2.42-1.68,3.91-1.68h12.13Z"/>
    <path class="st11" d="M611.98,113.38l-51.94-103.88c-1.25-2.5-3.76-4.05-6.56-4.05s-5.31,1.55-6.56,4.05l-51.94,103.88c-1.15,2.29-1.03,4.96.32,7.14,1.35,2.18,3.68,3.48,6.24,3.48h103.88c2.56,0,4.89-1.3,6.24-3.48,1.35-2.18,1.47-4.84.32-7.14ZM567.81,76.29l-10.97-21.94c-1.39-2.77-5.34-2.77-6.73,0l-20.64,41.29c-1.25,2.5.57,5.45,3.37,5.45h55.86c1.43,0,2.73.81,3.37,2.08l1.07,2.14c1.25,2.5-.57,5.45-3.37,5.45h-72.58c-2.8,0-4.62-2.94-3.37-5.45l36.29-72.58c1.39-2.77,5.34-2.77,6.73,0l26.62,53.24c1.25,2.5-.57,5.45-3.37,5.45h-31.62c-2.8,0-4.62-2.94-3.37-5.45l1.07-2.15c.64-1.27,1.94-2.08,3.37-2.08h14.89c2.8,0,4.62-2.94,3.37-5.45Z"/>
    <path class="st7" d="M470.45,6.74l4.52,12.23c.16.43.5.78.94.94l12.23,4.52c1.38.51,1.38,2.47,0,2.98l-12.23,4.52c-.43.16-.78.5-.94.94l-4.52,12.23c-.51,1.38-2.47,1.38-2.98,0l-4.52-12.23c-.16-.43-.5-.78-.94-.94l-12.23-4.52c-1.38-.51-1.38-2.47,0-2.98l12.23-4.52c.43-.16.78-.5.94-.94l4.52-12.23c.51-1.38,2.47-1.38,2.98,0Z"/>
  </g>
  <g>
    <path d="M1515.9,825.79c1.75,0,3.21.61,4.38,1.84,1.17,1.23,1.75,2.72,1.75,4.47v65.52c0,1.64-.58,3.07-1.75,4.29s-2.63,1.84-4.38,1.84h-13.32c-1.64,0-3.07-.61-4.29-1.84-1.23-1.23-1.84-2.66-1.84-4.29v-65.52c0-1.75.61-3.24,1.84-4.47,1.23-1.23,2.66-1.84,4.29-1.84h13.32Z"/>
    <path d="M1448.8,853.47l26.46,40.47c1.28,2.1,1.34,4.2.18,6.31-.47.93-1.2,1.69-2.19,2.28-.99.58-2.01.88-3.07.88h-15.94c-1.05,0-2.04-.26-2.98-.79-.93-.53-1.64-1.2-2.1-2.01l-26.63-42.22h-31.19v38.89c0,1.64-.61,3.07-1.84,4.29s-2.66,1.84-4.29,1.84h-13.32c-1.64,0-3.07-.61-4.29-1.84-1.23-1.23-1.84-2.66-1.84-4.29v-57.64c0-1.64.61-3.07,1.84-4.29,1.23-1.23,2.66-1.84,4.29-1.84h53.96c10.28,0,17.11-2.92,20.5-8.76,1.17-1.87,1.75-4.56,1.75-8.06,0-5.49-1.81-9.81-5.43-12.96-3.74-3.39-9.11-5.08-16.12-5.08h-54.66c-1.64,0-3.07-.61-4.29-1.84-1.23-1.23-1.84-2.66-1.84-4.29v-12.61c0-1.64.61-3.07,1.84-4.29,1.23-1.23,2.66-1.84,4.29-1.84h56.24c13.67,0,24.59,3.85,32.76,11.56,8.53,7.71,12.79,18.16,12.79,31.36,0,8.53-1.87,15.8-5.61,21.81-3.74,6.02-9.17,10.6-16.29,13.75l-2.98,1.23Z"/>
    <path d="M1331.24,773.75c1.75,0,3.21.61,4.38,1.84,1.17,1.23,1.75,2.66,1.75,4.29v12.41c0,1.75-.58,3.24-1.75,4.47-1.17,1.23-2.63,1.84-4.38,1.84h-13.32c-1.64,0-3.07-.61-4.29-1.84-1.23-1.23-1.84-2.72-1.84-4.47v-12.41c0-1.64.61-3.07,1.84-4.29,1.23-1.23,2.66-1.84,4.29-1.84h13.32Z"/>
    <path d="M1331.24,805.79c1.75,0,3.21.61,4.38,1.84,1.17,1.23,1.75,2.72,1.75,4.47v85.52c0,1.64-.58,3.07-1.75,4.29s-2.63,1.84-4.38,1.84h-13.32c-1.64,0-3.07-.61-4.29-1.84-1.23-1.23-1.84-2.66-1.84-4.29v-85.52c0-1.75.61-3.24,1.84-4.47,1.23-1.23,2.66-1.84,4.29-1.84h13.32Z"/>
    <path d="M1287.27,773.75c1.64,0,3.07.61,4.29,1.84,1.23,1.23,1.84,2.66,1.84,4.29v12.79c0,1.75-.61,3.24-1.84,4.47s-2.66,1.84-4.29,1.84h-84.97c-1.64,0-3.07-.61-4.29-1.84-1.23-1.23-1.84-2.72-1.84-4.47v-12.79c0-1.64.61-3.07,1.84-4.29s2.66-1.84,4.29-1.84h84.97Z"/>
    <path d="M1279.38,825.83c1.75,0,3.24.61,4.47,1.84,1.23,1.23,1.84,2.72,1.84,4.47v12.96c0,1.64-.61,3.07-1.84,4.29-1.23,1.23-2.72,1.84-4.47,1.84h-57.64v46.39c0,1.64-.58,3.07-1.75,4.29s-2.63,1.84-4.38,1.84h-13.32c-1.64,0-3.07-.61-4.29-1.84-1.23-1.23-1.84-2.66-1.84-4.29v-65.48c0-1.75.61-3.24,1.84-4.47,1.23-1.23,2.66-1.84,4.29-1.84h77.09Z"/>
    <path d="M1073.7,838.73c1.64,0,3.07.58,4.29,1.75s1.84,2.63,1.84,4.38v52.41c0,1.64-.61,3.07-1.84,4.29s-2.66,1.84-4.29,1.84h-13.32c-1.64,0-3.07-.61-4.29-1.84-1.23-1.23-1.84-2.66-1.84-4.29v-52.41c0-1.75.61-3.21,1.84-4.38,1.23-1.17,2.66-1.75,4.29-1.75h13.32Z"/>
    <path d="M1161.65,773.75c1.64,0,3.07.61,4.29,1.84,1.23,1.23,1.84,2.66,1.84,4.29v117.38c0,1.64-.61,3.07-1.84,4.29-1.23,1.23-2.66,1.84-4.29,1.84h-15.42c-2.1,0-3.8-.82-5.08-2.45l-85.67-117.38c-.7-.93-1.11-1.99-1.23-3.15-.12-1.17.09-2.28.61-3.33.53-1.05,1.28-1.87,2.28-2.45.99-.58,2.07-.88,3.24-.88h15.42c.93,0,1.87.2,2.8.61.93.41,1.64,1.02,2.1,1.84l61.5,83.57v-79.89c0-1.64.58-3.07,1.75-4.29,1.17-1.23,2.63-1.84,4.38-1.84h13.32,0Z"/>
    <path d="M1019.74,773.75c1.75,0,3.21.61,4.38,1.84,1.17,1.23,1.75,2.66,1.75,4.29v12.41c0,1.75-.58,3.24-1.75,4.47-1.17,1.23-2.63,1.84-4.38,1.84h-13.32c-1.64,0-3.07-.61-4.29-1.84-1.23-1.23-1.84-2.72-1.84-4.47v-12.41c0-1.64.61-3.07,1.84-4.29,1.23-1.23,2.66-1.84,4.29-1.84h13.32Z"/>
    <path d="M1019.74,805.79c1.75,0,3.21.61,4.38,1.84,1.17,1.23,1.75,2.72,1.75,4.47v85.52c0,1.64-.58,3.07-1.75,4.29-1.17,1.23-2.63,1.84-4.38,1.84h-13.32c-1.64,0-3.07-.61-4.29-1.84-1.23-1.23-1.84-2.66-1.84-4.29v-85.52c0-1.75.61-3.24,1.84-4.47,1.23-1.23,2.66-1.84,4.29-1.84h13.32Z"/>
    <path d="M1666.19,892.1l-57-114c-1.37-2.74-4.13-4.45-7.2-4.45s-5.83,1.71-7.2,4.45l-57,114c-1.26,2.51-1.13,5.44.35,7.83,1.48,2.39,4.04,3.82,6.85,3.82h114c2.81,0,5.37-1.43,6.85-3.82,1.48-2.39,1.61-5.32.35-7.83ZM1617.72,851.4l-12.04-24.08c-1.52-3.04-5.87-3.04-7.39,0l-22.65,45.31c-1.37,2.75.62,5.98,3.69,5.98h61.3c1.56,0,2.99.88,3.69,2.28l1.18,2.35c1.37,2.75-.62,5.98-3.69,5.98h-79.65c-3.07,0-5.07-3.23-3.69-5.98l39.82-79.65c1.52-3.04,5.87-3.04,7.39,0l29.21,58.42c1.37,2.75-.62,5.98-3.69,5.98h-34.69c-3.07,0-5.07-3.23-3.69-5.98l1.18-2.36c.7-1.4,2.13-2.28,3.69-2.28h16.34c3.07,0,5.07-3.23,3.69-5.98Z"/>
    <path d="M1510.73,774.69l5.13,13.88c.16.43.5.78.94.94l13.88,5.13c1.38.51,1.38,2.47,0,2.98l-13.88,5.13c-.43.16-.78.5-.94.94l-5.13,13.88c-.51,1.38-2.47,1.38-2.98,0l-5.13-13.88c-.16-.43-.5-.78-.94-.94l-13.88-5.13c-1.38-.51-1.38-2.47,0-2.98l13.88-5.13c.43-.16.78-.5.94-.94l5.13-13.88c.51-1.38,2.47-1.38,2.98,0Z"/>
  </g>
</svg>
